<?xml version="1.0" encoding="UTF-8" standalone="no"?><!DOCTYPE svg PUBLIC "-//W3C//DTD SVG 1.1//EN" "http://www.w3.org/Graphics/SVG/1.1/DTD/svg11.dtd"><svg width="100%" height="100%" viewBox="0 0 24 24" version="1.1" xmlns="http://www.w3.org/2000/svg" xmlns:xlink="http://www.w3.org/1999/xlink" xml:space="preserve" xmlns:serif="http://www.serif.com/" style="fill-rule:evenodd;clip-rule:evenodd;stroke-linejoin:round;stroke-miterlimit:2;"><g id="Icon"><path d="M20.179,20.857l-0,-17.714c-0,-1.046 -0.848,-1.893 -1.893,-1.893l-12.572,0c-1.045,0 -1.893,0.847 -1.893,1.893l0,17.714c0,1.046 0.848,1.893 1.893,1.893l12.572,-0c1.045,-0 1.893,-0.847 1.893,-1.893Zm-1.5,-17.714l-0,17.714c-0,0.217 -0.176,0.393 -0.393,0.393c-0,-0 -12.572,0 -12.572,0c-0.217,-0 -0.393,-0.176 -0.393,-0.393c0,0 0,-17.714 0,-17.714c0,-0.217 0.176,-0.393 0.393,-0.393c0,0 12.572,0 12.572,0c0.217,0 0.393,0.176 0.393,0.393Z"/><path d="M12,4.107c-1.36,0 -2.464,1.104 -2.464,2.464c-0,1.361 1.104,2.465 2.464,2.465c1.36,-0 2.464,-1.104 2.464,-2.465c0,-1.36 -1.104,-2.464 -2.464,-2.464Zm0,1.5c0.532,0 0.964,0.432 0.964,0.964c0,0.533 -0.432,0.965 -0.964,0.965c-0.532,-0 -0.964,-0.432 -0.964,-0.965c-0,-0.532 0.432,-0.964 0.964,-0.964Z"/><path d="M15.711,12.234l-0,-0.971c-0,-0.748 -0.442,-1.427 -1.126,-1.73c-0.517,-0.229 -1.138,-0.504 -1.138,-0.504c-0.096,-0.043 -0.199,-0.065 -0.304,-0.065l-2.286,0c-0.116,0 -0.231,0.027 -0.335,0.079c-0,0 -0.528,0.264 -0.979,0.49c-0.642,0.321 -1.047,0.976 -1.047,1.693l0,1.008c0,0.414 0.337,0.75 0.75,0.75c0.414,0 0.75,-0.336 0.75,-0.75l0,-1.008c0,-0.149 0.085,-0.285 0.218,-0.351l0.82,-0.411c0,0 1.95,0 1.95,0c0,0 0.993,0.44 0.993,0.44c0.142,0.063 0.234,0.204 0.234,0.359l-0,0.971c-0,0.414 0.336,0.75 0.75,0.75c0.414,0 0.75,-0.336 0.75,-0.75Z"/><path d="M9.714,16.464l4.572,0c0.414,0 0.75,-0.336 0.75,-0.75c-0,-0.414 -0.336,-0.75 -0.75,-0.75l-4.572,0c-0.414,0 -0.75,0.336 -0.75,0.75c0,0.414 0.336,0.75 0.75,0.75Z"/><path d="M8.571,19.321l6.858,0c0.414,0 0.75,-0.336 0.75,-0.75c-0,-0.414 -0.336,-0.75 -0.75,-0.75l-6.858,0c-0.414,0 -0.75,0.336 -0.75,0.75c0,0.414 0.336,0.75 0.75,0.75Z"/></g></svg>