<?xml version="1.0" encoding="iso-8859-1"?>
<!-- Generator: Adobe Illustrator 19.0.0, SVG Export Plug-In . SVG Version: 6.00 Build 0)  -->
<svg xmlns="http://www.w3.org/2000/svg" xmlns:xlink="http://www.w3.org/1999/xlink" version="1.1" id="Layer_1" x="0px" y="0px" viewBox="0 0 512 512" style="enable-background:new 0 0 512 512;" xml:space="preserve">
<path style="fill:#84DBFF;" d="M0,363.798V77.913c0-9.22,7.475-16.696,16.696-16.696h478.609c9.22,0,16.696,7.475,16.696,16.696  v202.485c0,6.841-4.174,12.99-10.532,15.516c-6.359,2.526-13.615,0.915-18.308-4.059L385.436,188.26L228.9,354.206  c-6.595,6.991-17.706,6.979-24.29,0l-77.956-82.646L28.841,375.254C18.513,386.203,0,378.893,0,363.798z"/>
<path style="fill:#54C9EB;" d="M495.304,61.217h-278.55v298.228c4.424,0,8.849-1.744,12.146-5.238L385.436,188.26l97.724,103.594  c4.694,4.975,11.948,6.585,18.308,4.059c6.358-2.527,10.532-8.675,10.532-15.516V77.913C512,68.693,504.525,61.217,495.304,61.217z"/>
<path style="fill:#FFE365;" d="M216.754,234.361c-27.721,0-50.275-22.554-50.275-50.275c0-27.72,22.554-50.274,50.275-50.274  s50.274,22.554,50.274,50.274C267.029,211.808,244.476,234.361,216.754,234.361z"/>
<path style="fill:#2FBD66;" d="M495.304,450.783H16.696C7.475,450.783,0,443.307,0,434.087v-70.289c0-4.26,1.627-8.358,4.55-11.457  l109.958-116.568c6.59-6.985,17.706-6.979,24.29,0l77.956,82.646L373.29,152.474c6.59-6.985,17.705-6.979,24.29,0l109.869,116.469  c2.923,3.099,4.551,7.197,4.551,11.457v153.688C512,443.307,504.525,450.783,495.304,450.783z"/>
<path style="fill:#27A14D;" d="M507.449,268.941L397.58,152.473c-6.584-6.979-17.7-6.985-24.29,0L216.755,318.418l-0.001-0.001  v132.365h278.55c9.22,0,16.696-7.475,16.696-16.696V280.398C512,276.138,510.372,272.04,507.449,268.941z"/>
<path style="fill:#FFC733;" d="M216.754,133.812L216.754,133.812v100.549l0,0c27.721,0,50.274-22.554,50.274-50.275  C267.029,156.365,244.476,133.812,216.754,133.812z"/>
<g>
</g>
<g>
</g>
<g>
</g>
<g>
</g>
<g>
</g>
<g>
</g>
<g>
</g>
<g>
</g>
<g>
</g>
<g>
</g>
<g>
</g>
<g>
</g>
<g>
</g>
<g>
</g>
<g>
</g>
</svg>
