<?xml version="1.0" encoding="UTF-8" standalone="no"?> <svg width="512" height="512" viewBox="0 0 512 512" fill="none" xmlns="http://www.w3.org/2000/svg">
<path d="M32 92H480V412H32V92Z" fill="#2A2FAF"/>
<path d="M32 92H480V196H32V92Z" fill="#FBFBFB"/>
<path d="M32 308H480V412H32V308Z" fill="#E92B2B"/>
<path d="M80 270.745V180H192V270.745C192 279.232 188.651 287.389 182.398 293.127C169.534 304.933 147.047 324 136 324C124.953 324 102.466 304.933 89.6018 293.127C83.3489 287.389 80 279.232 80 270.745Z" fill="#E92B2B"/>
<path fill-rule="evenodd" clip-rule="evenodd" d="M141.606 196V260H130.406V196H141.606Z" fill="#FBFBFB"/>
<path fill-rule="evenodd" clip-rule="evenodd" d="M156 217.598H116V206.398H156V217.598Z" fill="#FBFBFB"/>
<path fill-rule="evenodd" clip-rule="evenodd" d="M160 237.598H112V226.398H160V237.598Z" fill="#FBFBFB"/>
<path fill-rule="evenodd" clip-rule="evenodd" d="M108.936 307.978C108.626 307.993 108.314 308 108 308C96.9543 308 88 299.046 88 288C88 276.954 96.9543 268 108 268C109.777 268 111.5 268.232 113.141 268.667C116.24 258.999 125.303 252 136 252C146.697 252 155.76 258.999 158.859 268.667C160.499 268.232 162.223 268 164 268C175.046 268 184 276.954 184 288C184 297.72 177.066 305.82 167.875 307.625L168 308C160 313.333 142.4 324 136 324C130.713 324 117.784 314.902 108.936 307.978Z" fill="#2A2FAF"/>
<path fill-rule="evenodd" clip-rule="evenodd" d="M76 176H196V270.745C196 280.275 192.236 289.528 185.103 296.074C178.627 302.017 169.658 309.854 160.865 316.229C156.473 319.414 152.038 322.296 147.92 324.399C143.913 326.444 139.739 328 136 328C132.261 328 128.087 326.444 124.08 324.399C119.962 322.296 115.527 319.414 111.135 316.229C102.342 309.854 93.3734 302.017 86.8973 296.074C79.7636 289.528 76 280.275 76 270.745V176ZM84 184V270.745C84 278.189 86.9342 285.25 92.3064 290.18C98.6946 296.043 107.402 303.642 115.83 309.752C120.048 312.81 124.111 315.432 127.718 317.274C131.437 319.172 134.215 320 136 320C137.785 320 140.563 319.172 144.282 317.274C147.889 315.432 151.952 312.81 156.17 309.752C164.598 303.642 173.305 296.043 179.694 290.18C185.066 285.25 188 278.189 188 270.745V184H84Z" fill="#FBFBFB"/>
</svg>
