<svg width="471" height="70" viewBox="0 0 471 70" fill="none" xmlns="http://www.w3.org/2000/svg">
<path d="M38.4062 12.75L31.9375 11.9531C25.7188 11.9531 21.6719 12.7969 19.7969 14.4844C17.9219 16.1406 16.9844 19.5938 16.9844 24.8438V25.5938H33.9531C34.7969 25.5938 35.4844 25.875 36.0156 26.4375C36.5781 26.9688 36.8594 27.6562 36.8594 28.5V34.0781C36.8594 34.9219 36.5781 35.6094 36.0156 36.1406C35.4844 36.6719 34.7969 36.9375 33.9531 36.9375H16.9844V66.1406C16.9844 66.9844 16.7031 67.6719 16.1406 68.2031C15.6094 68.7344 14.9375 69 14.125 69H3.625C2.78125 69 2.09375 68.7344 1.5625 68.2031C1.03125 67.6719 0.765625 66.9844 0.765625 66.1406V24.8438C0.765625 16.125 2.75 9.95312 6.71875 6.32812C10.6875 2.67188 17.6562 0.84375 27.625 0.84375C32.75 0.84375 36.3281 1.03125 38.3594 1.40625C40.3906 1.78125 41.6719 2.25 42.2031 2.8125C42.7344 3.34375 43 3.96875 43 4.6875V9.84375C43 10.6875 42.7188 11.3906 42.1562 11.9531C41.625 12.4844 40.9531 12.75 40.1406 12.75H38.4062ZM82.4219 29.5312L75.2031 29.25C70.9844 29.25 66.9531 31.5625 63.1094 36.1875V66.1406C63.1094 66.9844 62.8281 67.6719 62.2656 68.2031C61.7344 68.7344 61.0625 69 60.25 69H49.75C48.9062 69 48.2188 68.7344 47.6875 68.2031C47.1562 67.6719 46.8906 66.9844 46.8906 66.1406V20.5312C46.8906 19.6875 47.1562 19 47.6875 18.4688C48.25 17.9062 48.9375 17.625 49.75 17.625H60.25C61.0938 17.625 61.7812 17.9062 62.3125 18.4688C62.8438 19 63.1094 19.6875 63.1094 20.5312V23.4844C66.2969 21.1719 69.3594 19.4688 72.2969 18.375C75.2656 17.25 79.1406 16.6875 83.9219 16.6875C84.7656 16.6875 85.4531 16.9688 85.9844 17.5312C86.5469 18.0625 86.8281 18.7344 86.8281 19.5469V26.6719C86.8281 27.5156 86.5469 28.2031 85.9844 28.7344C85.4531 29.2656 84.7656 29.5312 83.9219 29.5312H82.4219ZM97.9844 63.1875C93.1094 58.6875 90.6719 52.0625 90.6719 43.3125C90.6719 34.5312 93.1094 27.9062 97.9844 23.4375C102.859 18.9375 109.859 16.6875 118.984 16.6875C128.141 16.6875 135.156 18.9375 140.031 23.4375C144.906 27.9062 147.344 34.5312 147.344 43.3125C147.344 52.0625 144.906 58.6875 140.031 63.1875C135.156 67.6875 128.141 69.9375 118.984 69.9375C109.859 69.9375 102.859 67.6875 97.9844 63.1875ZM109.844 31.125C107.906 33.6562 106.938 37.7031 106.938 43.2656C106.938 48.8281 107.906 52.8906 109.844 55.4531C111.781 58.0156 114.828 59.2969 118.984 59.2969C123.172 59.2969 126.234 58.0156 128.172 55.4531C130.141 52.8906 131.125 48.8281 131.125 43.2656C131.125 37.7031 130.141 33.6562 128.172 31.125C126.234 28.5938 123.172 27.3281 118.984 27.3281C114.828 27.3281 111.781 28.5938 109.844 31.125ZM156.016 66.1406V20.5312C156.016 19.6875 156.281 19 156.812 18.4688C157.375 17.9062 158.062 17.625 158.875 17.625H169.375C170.188 17.625 170.859 17.9062 171.391 18.4688C171.953 19 172.234 19.6875 172.234 20.5312V23.4844C177.609 18.9531 183.328 16.6875 189.391 16.6875C195.484 16.6875 200.438 18.5469 204.25 22.2656C208.062 25.9531 209.969 31.6094 209.969 39.2344V66.1406C209.969 66.9531 209.688 67.6406 209.125 68.2031C208.594 68.7344 207.906 69 207.062 69H196.609C195.797 69 195.109 68.7344 194.547 68.2031C194.016 67.6406 193.75 66.9531 193.75 66.1406V39.2344C193.75 31.7656 190.766 28.0312 184.797 28.0312C180.891 28.0312 176.703 30.2656 172.234 34.7344V66.1406C172.234 66.9531 171.953 67.6406 171.391 68.2031C170.859 68.7344 170.188 69 169.375 69H158.875C158.062 69 157.375 68.7344 156.812 68.2031C156.281 67.6406 156.016 66.9531 156.016 66.1406ZM246.016 58.8281L252.438 58.2656H254.172C255.016 58.2656 255.703 58.5312 256.234 59.0625C256.797 59.5938 257.078 60.2812 257.078 61.125V66.1406C257.078 66.8281 256.797 67.4531 256.234 68.0156C255.703 68.5469 255.016 68.875 254.172 69C250.984 69.625 246.828 69.9375 241.703 69.9375C228.266 69.9375 221.547 62.9062 221.547 48.8438V4.6875C221.547 3.84375 221.812 3.15625 222.344 2.625C222.906 2.0625 223.594 1.78125 224.406 1.78125H234.906C235.719 1.78125 236.391 2.0625 236.922 2.625C237.484 3.15625 237.766 3.84375 237.766 4.6875V20.3438H250.844C251.656 20.3438 252.328 20.6094 252.859 21.1406C253.422 21.6719 253.703 22.3594 253.703 23.2031V28.7812C253.703 29.625 253.422 30.3125 252.859 30.8438C252.328 31.375 251.656 31.6406 250.844 31.6406H237.766V48.8438C237.766 52.0312 238.516 54.5 240.016 56.25C241.516 57.9688 243.516 58.8281 246.016 58.8281ZM268.609 63.0938C263.797 58.5312 261.391 51.9688 261.391 43.4062C261.391 34.8125 263.812 28.2188 268.656 23.625C273.5 19 280.219 16.6875 288.812 16.6875C297.406 16.6875 304.109 18.9375 308.922 23.4375C313.734 27.9062 316.141 34.3281 316.141 42.7031V45.375C316.141 46.2188 315.859 46.9219 315.297 47.4844C314.766 48.0156 314.078 48.2812 313.234 48.2812H277.938C278.25 52.125 279.344 54.9219 281.219 56.6719C283.125 58.4219 286.156 59.2969 290.312 59.2969C294.469 59.2969 297.312 58.3594 298.844 56.4844C300.375 54.6094 302.266 53.6562 304.516 53.625H311.5C312.344 53.625 313.031 53.9062 313.562 54.4688C314.125 55 314.406 55.6875 314.406 56.5312C314.406 65.5 305.859 69.9688 288.766 69.9375C280.141 69.9375 273.422 67.6562 268.609 63.0938ZM277.844 38.3906H299.641C299.328 31.0156 295.703 27.3281 288.766 27.3281C281.859 27.3281 278.219 31.0156 277.844 38.3906ZM324.766 66.1406V20.5312C324.766 19.6875 325.031 19 325.562 18.4688C326.125 17.9062 326.812 17.625 327.625 17.625H338.125C338.938 17.625 339.609 17.9062 340.141 18.4688C340.703 19 340.984 19.6875 340.984 20.5312V23.4844C346.359 18.9531 352.078 16.6875 358.141 16.6875C364.234 16.6875 369.188 18.5469 373 22.2656C376.812 25.9531 378.719 31.6094 378.719 39.2344V66.1406C378.719 66.9531 378.438 67.6406 377.875 68.2031C377.344 68.7344 376.656 69 375.812 69H365.359C364.547 69 363.859 68.7344 363.297 68.2031C362.766 67.6406 362.5 66.9531 362.5 66.1406V39.2344C362.5 31.7656 359.516 28.0312 353.547 28.0312C349.641 28.0312 345.453 30.2656 340.984 34.7344V66.1406C340.984 66.9531 340.703 67.6406 340.141 68.2031C339.609 68.7344 338.938 69 338.125 69H327.625C326.812 69 326.125 68.7344 325.562 68.2031C325.031 67.6406 324.766 66.9531 324.766 66.1406ZM410.359 69.9375C403.828 69.9375 398.359 67.6406 393.953 63.0469C389.578 58.4531 387.391 51.875 387.391 43.3125C387.391 34.7188 389.656 28.1406 394.188 23.5781C398.75 18.9844 404.875 16.6875 412.562 16.6875C416.531 16.6875 421.047 17.4844 426.109 19.0781V4.6875C426.109 3.84375 426.375 3.15625 426.906 2.625C427.469 2.0625 428.156 1.78125 428.969 1.78125H439.422C440.266 1.78125 440.953 2.0625 441.484 2.625C442.047 3.15625 442.328 3.84375 442.328 4.6875V66.1406C442.328 66.9531 442.047 67.6406 441.484 68.2031C440.953 68.7344 440.266 69 439.422 69H430.422C429.578 69 428.891 68.7344 428.359 68.2031C427.828 67.6406 427.562 66.9531 427.562 66.1406V64.6875C422.625 68.1875 416.891 69.9375 410.359 69.9375ZM415.938 28.0312C411.625 28.0312 408.578 29.25 406.797 31.6875C405.016 34.0938 404.125 37.9688 404.125 43.3125C404.125 48.6562 404.969 52.5469 406.656 54.9844C408.344 57.4219 410.875 58.6406 414.25 58.6406C417.656 58.6406 421.609 57.2344 426.109 54.4219V29.9062C422.078 28.6562 418.688 28.0312 415.938 28.0312ZM464.031 53.8125C468.25 53.8125 470.359 55.9375 470.359 60.1875V63.1406C470.359 65.1094 469.812 66.6562 468.719 67.7812C467.656 68.9062 466.094 69.4688 464.031 69.4688H458.266C456.203 69.4688 454.625 68.9062 453.531 67.7812C452.469 66.6562 451.938 65.1094 451.938 63.1406V60.1875C451.938 58.125 452.484 56.5469 453.578 55.4531C454.672 54.3594 456.234 53.8125 458.266 53.8125H464.031Z" fill=""/>
</svg>
